<svg xmlns="http://www.w3.org/2000/svg" xmlns:xlink="http://www.w3.org/1999/xlink" viewBox="0 0 48 48"><path d="M 24.585 19.5 C 34.5 19.5 42 15.63 42 10.5 C 42 5.37 34.5 1.5 24.585 1.5 C 15.645 1.5 6 4.935 6 10.5 C 6 16.065 15.645 19.5 24.585 19.5 Z M 24.585 4.5 C 33.075 4.5 39 7.665 39 10.5 C 39 13.335 33.075 16.5 24.585 16.5 C 16.095 16.5 9 13.215 9 10.5 C 9 7.785 15.96 4.5 24.585 4.5 Z M 8.565 36.435 C 8.491 36.367 8.411 36.307 8.325 36.255 C 8.249 36.195 8.162 36.15 8.07 36.12 C 7.982 36.064 7.886 36.024 7.785 36 C 7.296 35.902 6.79 36.054 6.435 36.405 C 6.303 36.551 6.196 36.718 6.12 36.9 C 6.039 37.09 5.998 37.294 6 37.5 C 5.994 37.697 6.035 37.892 6.12 38.07 C 6.196 38.252 6.303 38.419 6.435 38.565 C 6.581 38.697 6.748 38.804 6.93 38.88 C 7.293 39.04 7.707 39.04 8.07 38.88 C 8.252 38.804 8.419 38.697 8.565 38.565 C 8.697 38.419 8.804 38.252 8.88 38.07 C 9.04 37.707 9.04 37.293 8.88 36.93 C 8.804 36.748 8.697 36.581 8.565 36.435 Z M 18.285 42.9 C 16.039 42.503 13.868 41.759 11.85 40.695 C 11.129 40.281 10.209 40.529 9.795 41.25 C 9.381 41.971 9.629 42.891 10.35 43.305 C 12.649 44.525 15.123 45.38 17.685 45.84 L 17.97 45.84 C 18.798 45.919 19.534 45.311 19.613 44.482 C 19.691 43.654 19.083 42.919 18.255 42.84 Z M 39.585 34.62 C 38.829 34.949 38.481 35.827 38.805 36.585 C 38.933 36.873 38.999 37.185 39 37.5 C 39 40.335 33.075 43.5 24.585 43.5 L 24 43.5 C 23.172 43.5 22.5 44.172 22.5 45 C 22.5 45.828 23.172 46.5 24 46.5 L 24.615 46.5 C 34.5 46.5 42 42.63 42 37.5 C 41.998 36.783 41.85 36.073 41.565 35.415 C 41.41 35.045 41.113 34.753 40.741 34.604 C 40.369 34.455 39.953 34.46 39.585 34.62 Z" fill="hsl(0, 0%, 100%)"></path><path d="M 39.585 16.62 C 38.829 16.949 38.481 17.827 38.805 18.585 C 38.933 18.873 38.999 19.185 39 19.5 C 39 22.335 33.075 25.5 24.585 25.5 C 16.095 25.5 9 22.215 9 19.5 C 9.002 19.207 9.074 18.919 9.21 18.66 C 9.468 18.178 9.444 17.594 9.146 17.135 C 8.849 16.676 8.325 16.415 7.779 16.455 C 7.234 16.495 6.753 16.828 6.525 17.325 C 6.183 17.999 6.003 18.744 6 19.5 C 6 25.065 15.645 28.5 24.585 28.5 C 34.5 28.5 42 24.63 42 19.5 C 41.998 18.783 41.85 18.073 41.565 17.415 C 41.41 17.045 41.113 16.753 40.741 16.604 C 40.369 16.455 39.953 16.46 39.585 16.62 Z" fill="hsl(0, 0%, 100%)"></path><path d="M 39.585 25.62 C 38.829 25.949 38.481 26.827 38.805 27.585 C 38.933 27.873 38.999 28.185 39 28.5 C 39 31.335 33.075 34.5 24.585 34.5 C 16.095 34.5 9 31.215 9 28.5 C 9.002 28.207 9.074 27.919 9.21 27.66 C 9.468 27.178 9.444 26.594 9.146 26.135 C 8.849 25.676 8.325 25.415 7.779 25.455 C 7.234 25.495 6.753 25.828 6.525 26.325 C 6.183 26.999 6.003 27.744 6 28.5 C 6 34.065 15.645 37.5 24.585 37.5 C 34.5 37.5 42 33.63 42 28.5 C 41.998 27.783 41.85 27.073 41.565 26.415 C 41.41 26.045 41.113 25.753 40.741 25.604 C 40.369 25.455 39.953 25.46 39.585 25.62 Z" fill="hsl(0, 0%, 100%)"></path></svg>