<svg xmlns="http://www.w3.org/2000/svg" xmlns:xlink="http://www.w3.org/1999/xlink" viewBox="0 0 48 48"><path d="M 24 15.75 C 19.05 15.75 15 19.8 15 24.75 C 15 29.7 19.05 33.75 24 33.75 C 28.95 33.75 33 29.7 33 24.75 C 33 19.8 28.95 15.75 24 15.75 Z M 24 30.75 C 20.7 30.75 18 28.05 18 24.75 C 18 21.45 20.7 18.75 24 18.75 C 27.3 18.75 30 21.45 30 24.75 C 30 28.05 27.3 30.75 24 30.75 Z M 24 37.8 C 18.413 37.8 13.05 40.125 9.225 44.213 L 8.213 45.3 L 10.388 47.363 L 11.4 46.275 C 14.7 42.75 19.163 40.8 24 40.8 C 28.838 40.8 33.3 42.75 36.6 46.275 L 37.613 47.363 L 39.788 45.3 L 38.775 44.213 C 34.95 40.163 29.588 37.8 24 37.8 Z M 36.375 17.962 L 36.375 20.962 C 39.9 20.962 43.163 22.387 45.6 24.975 L 47.775 22.912 C 44.85 19.762 40.688 17.962 36.375 17.962 Z M 43.537 7.5 C 43.537 3.562 40.312 0.337 36.375 0.337 C 32.437 0.337 29.212 3.562 29.212 7.5 C 29.212 11.438 32.437 14.662 36.375 14.662 C 40.312 14.662 43.537 11.438 43.537 7.5 Z M 32.212 7.5 C 32.212 5.213 34.087 3.337 36.375 3.337 C 38.662 3.337 40.537 5.213 40.537 7.5 C 40.537 9.787 38.662 11.662 36.375 11.662 C 34.087 11.662 32.212 9.787 32.212 7.5 Z M 11.625 17.962 C 7.313 17.962 3.15 19.762 0.225 22.912 L 2.4 24.975 C 4.8 22.387 8.1 20.962 11.625 20.962 Z M 18.788 7.5 C 18.788 3.562 15.563 0.337 11.625 0.337 C 7.688 0.337 4.463 3.562 4.463 7.5 C 4.463 11.438 7.688 14.662 11.625 14.662 C 15.563 14.662 18.788 11.438 18.788 7.5 Z M 11.625 11.662 C 9.338 11.662 7.463 9.787 7.463 7.5 C 7.463 5.212 9.338 3.337 11.625 3.337 C 13.913 3.337 15.788 5.213 15.788 7.5 C 15.788 9.787 13.913 11.662 11.625 11.662 Z" fill="hsl(0, 0%, 100%)"></path></svg>