<svg xmlns="http://www.w3.org/2000/svg" xmlns:xlink="http://www.w3.org/1999/xlink" viewBox="0 0 48 48"><path d="M 6 9 C 6 9.828 6.672 10.5 7.5 10.5 L 40.5 10.5 C 41.328 10.5 42 9.828 42 9 C 42 8.172 41.328 7.5 40.5 7.5 L 7.5 7.5 C 6.672 7.5 6 8.172 6 9 Z M 12 3 C 12 3.828 12.672 4.5 13.5 4.5 L 34.5 4.5 C 35.328 4.5 36 3.828 36 3 C 36 2.172 35.328 1.5 34.5 1.5 L 13.5 1.5 C 12.672 1.5 12 2.172 12 3 Z M 20.295 19.728 C 19.833 19.439 19.25 19.424 18.773 19.688 C 18.296 19.952 18 20.455 18 21 L 18 36 C 18 36.545 18.296 37.048 18.773 37.312 C 19.25 37.576 19.833 37.561 20.295 37.272 L 32.295 29.772 C 32.734 29.498 33 29.017 33 28.5 C 33 27.983 32.734 27.502 32.295 27.228 Z" fill="hsl(0, 0%, 100%)"></path><path d="M 4.5 43.5 C 2.015 43.5 0 41.485 0 39 L 0 18 C 0 15.515 2.015 13.5 4.5 13.5 L 43.5 13.5 C 45.985 13.5 48 15.515 48 18 L 48 39 C 48 41.485 45.985 43.5 43.5 43.5 Z M 43.5 40.5 C 44.328 40.5 45 39.828 45 39 L 45 18 C 45 17.172 44.328 16.5 43.5 16.5 L 4.5 16.5 C 3.672 16.5 3 17.172 3 18 L 3 39 C 3 39.828 3.672 40.5 4.5 40.5 Z" fill="hsl(0, 0%, 100%)"></path></svg>